<svg xmlns="http://www.w3.org/2000/svg" xmlns:svg="http://www.w3.org/2000/svg" xmlns:xlink="http://www.w3.org/1999/xlink" version="1.0" height="533.9999904632568pt" width="737pt" viewBox="344.3985 333 745 539.9999904632568" ><defs><style type="text/css">
            @font-face {
                font-family: 'noto_regular';
                src: url('https://app.creately.com/diagram/assets/fonts/noto/noto-regular.woff') format('woff'),
                     url('https://app.creately.com/diagram/assets/fonts/noto/noto-regular.woff2') format('woff2');
                font-weight: normal;
                font-style: normal;
            }
        p {
            margin: 0;
        }
        </style></defs><defs><style>
            span{ display: inline-block; }
        </style></defs><g id="2f1353lhc1"><g transform="translate(550 360)"><rect x="0" y="0" width="339.9999976158142" height="509.99999046325684" fill="rgba(255,255,255,1)" stroke="#cccccc" stroke-width="1.5" stroke-linecap="round" stroke-linejoin="round"/></g><g transform="translate(697.4999988079071, 370) rotate(0, 22.5, 0)" width="45" height="18"><text text-decoration="none" x="0.5" fill="rgb(84, 84, 84)" font-size="10pt" font-family="noto_regular"  y="17">System</text><text text-decoration="none" x="44.5" fill="#4b4b4b" font-size="10pt" font-family="noto_regular"  y="17"></text></g><g transform="translate(581.9999988079071, 336) rotate(0, 138, 19)" width="276" height="19"><text text-decoration="none" x="15" fill="rgb(75, 75, 75)" font-size="10pt" font-family="Lato"  y="17">Online&#160;</text><text text-decoration="none" x="57" fill="rgb(75, 75, 75)" font-size="10pt" font-family="Lato"  y="17">Railway&#160;</text><text text-decoration="none" x="105" fill="rgb(75, 75, 75)" font-size="10pt" font-family="Lato"  y="17">Ticket&#160;</text><text text-decoration="none" x="143" fill="rgb(75, 75, 75)" font-size="10pt" font-family="Lato"  y="17">Reservation&#160;</text><text text-decoration="none" x="217" fill="rgb(75, 75, 75)" font-size="10pt" font-family="Lato"  y="17">System</text><text text-decoration="none" x="261" fill="#4b4b4b" font-size="10pt" font-family="noto_regular"  y="17"></text></g></g><g id="84r02e321l"><g transform="translate(355 430)"><ellipse cx="20.3985" cy="10.10075" rx="10.19925" ry="10.10075" fill="rgba(255,255,255,1)" stroke="#ea5b67" stroke-width="1.5" stroke-linecap="round" stroke-linejoin="round"/><path d="M 20.3985,20.2015 L 20.3985,48.483599999999996 L 40.797,80.806 M 20.3985,48.483599999999996 L 0,80.806 M 2.03985,30.30225 L 38.757149999999996,30.30225" fill="none" stroke="#ea5b67" stroke-width="1.5" stroke-linecap="round" stroke-linejoin="round"/><rect x="0" y="0" width="40.797" height="80.806" fill="rgba(255,255,255,0.01)" stroke="rgba(255,255,255,0.01)" stroke-width="1.5" stroke-linecap="round" stroke-linejoin="round"/></g><g transform="translate(349.3985, 515.806) rotate(0, 26, 0)" width="52" height="19"><text text-decoration="none" x="2" fill="rgb(75, 75, 75)" font-size="10pt" font-family="Lato"  y="17">Traveler</text><text text-decoration="none" x="50" fill="#4b4b4b" font-size="10pt" font-family="noto_regular"  y="17"></text></g></g><g id="2ip9bqppm1"><g transform="translate(1040 550)"><ellipse cx="20.3985" cy="10.10075" rx="10.19925" ry="10.10075" fill="rgba(255,255,255,1)" stroke="#ea5b67" stroke-width="1.5" stroke-linecap="round" stroke-linejoin="round"/><path d="M 20.3985,20.2015 L 20.3985,48.483599999999996 L 40.797,80.806 M 20.3985,48.483599999999996 L 0,80.806 M 2.03985,30.30225 L 38.757149999999996,30.30225" fill="none" stroke="#ea5b67" stroke-width="1.5" stroke-linecap="round" stroke-linejoin="round"/><rect x="0" y="0" width="40.797" height="80.806" fill="rgba(255,255,255,0.01)" stroke="rgba(255,255,255,0.01)" stroke-width="1.5" stroke-linecap="round" stroke-linejoin="round"/></g><g transform="translate(1034.3985, 635.806) rotate(0, 26, 0)" width="52" height="35"><text text-decoration="none" x="3.5" fill="rgb(75, 75, 75)" font-size="10pt" font-family="Lato"  y="14">Railway&#160;</text><text text-decoration="none" x="2" fill="rgb(75, 75, 75)" font-size="10pt" font-family="Lato"  y="36">Website</text><text text-decoration="none" x="50" fill="#4b4b4b" font-size="10pt" font-family="noto_regular"  y="36"></text></g></g><g id="1m3vbxc6ds"><g transform="translate(355 740)"><ellipse cx="20.3985" cy="10.10075" rx="10.19925" ry="10.10075" fill="rgba(255,255,255,1)" stroke="#ea5b67" stroke-width="1.5" stroke-linecap="round" stroke-linejoin="round"/><path d="M 20.3985,20.2015 L 20.3985,48.483599999999996 L 40.797,80.806 M 20.3985,48.483599999999996 L 0,80.806 M 2.03985,30.30225 L 38.757149999999996,30.30225" fill="none" stroke="#ea5b67" stroke-width="1.5" stroke-linecap="round" stroke-linejoin="round"/><rect x="0" y="0" width="40.797" height="80.806" fill="rgba(255,255,255,0.01)" stroke="rgba(255,255,255,0.01)" stroke-width="1.5" stroke-linecap="round" stroke-linejoin="round"/></g><g transform="translate(358.3985, 825.806) rotate(0, 17, 0)" width="34" height="19"><text text-decoration="none" x="2" fill="rgb(75, 75, 75)" font-size="10pt" font-family="Lato"  y="17">Clerk</text><text text-decoration="none" x="32" fill="#4b4b4b" font-size="10pt" font-family="noto_regular"  y="17"></text></g></g><g id="1cvvns6npz"><g transform="translate(666.05 370)"><ellipse cx="50.000002443790436" cy="30.5" rx="50.000002443790436" ry="30.5" fill="rgba(26,188,156,1)" stroke="#1abc9c" stroke-width="1.5" stroke-linecap="round" stroke-linejoin="round"/></g><g transform="translate(674.0500024437904, 383) rotate(0, 42, 17.5)" width="84" height="35"><text text-decoration="none" x="5" fill="rgb(255, 255, 255)" font-size="10pt" font-family="Lato"  y="14">Check&#160;</text><text text-decoration="none" x="44" fill="rgb(255, 255, 255)" font-size="10pt" font-family="Lato"  y="14">Ticket&#160;</text><text text-decoration="none" x="10" fill="rgb(255, 255, 255)" font-size="10pt" font-family="Lato"  y="36">Availability</text><text text-decoration="none" x="74" fill="#4b4b4b" font-size="10pt" font-family="noto_regular"  y="36"></text></g></g><g id="3qhmyhc1iq"><g transform="translate(675 450)"><ellipse cx="45.5" cy="30.5" rx="45.5" ry="30.5" fill="rgba(26,188,156,1)" stroke="#1abc9c" stroke-width="1.5" stroke-linecap="round" stroke-linejoin="round"/></g><g transform="translate(693.5, 463) rotate(0, 27, 17.5)" width="54" height="35"><text text-decoration="none" x="1.5" fill="rgb(255, 255, 255)" font-size="10pt" font-family="Lato"  y="14">Pay&#160;</text><text text-decoration="none" x="26.5" fill="rgb(255, 255, 255)" font-size="10pt" font-family="Lato"  y="14">Fare&#160;</text><text text-decoration="none" x="2.5" fill="rgb(255, 255, 255)" font-size="10pt" font-family="Lato"  y="36">Amount</text><text text-decoration="none" x="51.5" fill="#4b4b4b" font-size="10pt" font-family="noto_regular"  y="36"></text></g></g><g id="11qmwoa0g1"><g transform="translate(675 535)"><ellipse cx="45.5" cy="30.5" rx="45.5" ry="30.5" fill="rgba(26,188,156,1)" stroke="#1abc9c" stroke-width="1.5" stroke-linecap="round" stroke-linejoin="round"/></g><g transform="translate(682, 556) rotate(0, 38.5, 9.5)" width="77" height="19"><text text-decoration="none" x="4" fill="rgb(255, 255, 255)" font-size="10pt" font-family="Lato"  y="17">Book&#160;</text><text text-decoration="none" x="38" fill="rgb(255, 255, 255)" font-size="10pt" font-family="Lato"  y="17">Ticket</text><text text-decoration="none" x="73" fill="#4b4b4b" font-size="10pt" font-family="noto_regular"  y="17"></text></g></g><g id="18eag2q4n4"><g transform="translate(675 620)"><ellipse cx="45.5" cy="30.5" rx="45.5" ry="30.5" fill="rgba(26,188,156,1)" stroke="#1abc9c" stroke-width="1.5" stroke-linecap="round" stroke-linejoin="round"/></g><g transform="translate(686.5, 641) rotate(0, 34, 9.5)" width="68" height="19"><text text-decoration="none" x="4.5" fill="rgb(255, 255, 255)" font-size="10pt" font-family="Lato"  y="17">Fill&#160;</text><text text-decoration="none" x="23.5" fill="rgb(255, 255, 255)" font-size="10pt" font-family="Lato"  y="17">Details</text><text text-decoration="none" x="63.5" fill="#4b4b4b" font-size="10pt" font-family="noto_regular"  y="17"></text></g></g><g id="1r42v7fetn"><g transform="translate(675 705)"><ellipse cx="45.5" cy="30.5" rx="45.5" ry="30.5" fill="rgba(26,188,156,1)" stroke="#1abc9c" stroke-width="1.5" stroke-linecap="round" stroke-linejoin="round"/></g><g transform="translate(676.5, 726) rotate(0, 44, 9.5)" width="88" height="19"><text text-decoration="none" x="5.5" fill="rgb(255, 255, 255)" font-size="10pt" font-family="Lato"  y="17">Cancel&#160;</text><text text-decoration="none" x="47.5" fill="rgb(255, 255, 255)" font-size="10pt" font-family="Lato"  y="17">Ticket</text><text text-decoration="none" x="82.5" fill="#4b4b4b" font-size="10pt" font-family="noto_regular"  y="17"></text></g></g><g id="1kl4hhhub9"><g transform="translate(680 785)"><ellipse cx="45.5" cy="30.5" rx="45.5" ry="30.5" fill="rgba(26,188,156,1)" stroke="#1abc9c" stroke-width="1.5" stroke-linecap="round" stroke-linejoin="round"/></g><g transform="translate(703, 798) rotate(0, 22.5, 17.5)" width="45" height="35"><text text-decoration="none" x="1" fill="rgb(255, 255, 255)" font-size="10pt" font-family="Lato"  y="14">Refund&#160;</text><text text-decoration="none" x="1.5" fill="rgb(255, 255, 255)" font-size="10pt" font-family="Lato"  y="36">Money</text><text text-decoration="none" x="43.5" fill="#4b4b4b" font-size="10pt" font-family="noto_regular"  y="36"></text></g></g><g id="2vw4nb0pwg"><g><path d="M 405,455 L 675,400" fill="none" stroke="#a0a0a0" stroke-width="1.5" stroke-linecap="round" stroke-linejoin="round"/></g></g><g id="2fizjkkdye"><g><path d="M 405,455 L 675,480" fill="none" stroke="#a0a0a0" stroke-width="1.5" stroke-linecap="round" stroke-linejoin="round"/></g></g><g id="4s25br5y3c"><g><path d="M 406,457 L 675,565" fill="none" stroke="#a0a0a0" stroke-width="1.5" stroke-linecap="round" stroke-linejoin="round"/></g></g><g id="aizo13bf5y"><g><path d="M 406,457 L 675,650" fill="none" stroke="#a0a0a0" stroke-width="1.5" stroke-linecap="round" stroke-linejoin="round"/></g></g><g id="hfspyuxes8"><g><path d="M 406,456 L 675,730" fill="none" stroke="#a0a0a0" stroke-width="1.5" stroke-linecap="round" stroke-linejoin="round"/></g></g><g id="730axmcbdh"><g><path d="M 411,768 L 675,740" fill="none" stroke="#a0a0a0" stroke-width="1.5" stroke-linecap="round" stroke-linejoin="round"/></g></g><g id="193o8hubea"><g><path d="M 765,398 L 1010,580" fill="none" stroke="#a0a0a0" stroke-width="1.5" stroke-linecap="round" stroke-linejoin="round"/></g></g><g id="2g796pe4s3"><g><path d="M 765,479 L 1010,580" fill="none" stroke="#a0a0a0" stroke-width="1.5" stroke-linecap="round" stroke-linejoin="round"/></g></g><g id="2i5pcncztu"><g><path d="M 762,566 L 1010,580" fill="none" stroke="#a0a0a0" stroke-width="1.5" stroke-linecap="round" stroke-linejoin="round"/></g></g><g id="90p13oifsc"><g><path d="M 765,650 L 1010,580" fill="none" stroke="#a0a0a0" stroke-width="1.5" stroke-linecap="round" stroke-linejoin="round"/></g></g><g id="yj6pfccer9"><g><path d="M 765,732 L 1010,580" fill="none" stroke="#a0a0a0" stroke-width="1.5" stroke-linecap="round" stroke-linejoin="round"/></g></g><g id="2bhnkcyl9y"><g><path d="M 770,810 L 1010,580" fill="none" stroke="#a0a0a0" stroke-width="1.5" stroke-linecap="round" stroke-linejoin="round"/></g></g><g id="7lai1ol6ru"><g transform="translate(710 760)"><path d="M 13,0 L 13,4.997696401834489 L 0,4.997696401834489 L 13.479638376832007,34.99769640183449 L 26.959276753664014,4.997696401834489 L 13.959276753664014,4.997696401834489 L 13.959276753664014,0 L 13,0 Z" fill="rgba(255,255,255,1)" stroke="#3298da" stroke-width="1.5" stroke-linecap="round" stroke-linejoin="round"/></g></g><g id="295mcplxnu"><g transform="translate(710 675)"><path d="M 13,0 L 13,9.997369644641878 L 0,9.997369644641878 L 13.504646595120429,39.99736964464188 L 27.009293190240857,9.997369644641878 L 14.009293190240857,9.997369644641878 L 14.009293190240857,0 L 13,0 Z" fill="rgba(255,255,255,1)" stroke="#3298da" stroke-width="1.5" stroke-linecap="round" stroke-linejoin="round"/></g></g><g id="18stb828k5"><g transform="translate(705 585) rotate(6.785183369408196e-15)"><path d="M 0,16.36926881009882 L 15.00516307592392,0 L 30.01032615184784,16.36926881009882 L 22.91697633413835,16.36926881009882 L 22.91697633413835,41.99723676872254 L 7.0933498177094885,41.99723676872254 L 7.0933498177094885,16.36926881009882 L 0,16.36926881009882 Z" fill="rgba(255,255,255,1)" stroke="#3298da" stroke-width="1.5" stroke-linecap="round" stroke-linejoin="round"/></g></g><g id="28w6587zrx"><g transform="translate(705 500)"><path d="M 0,17.515118798342616 L 16.0555255651474,0 L 32.1110511302948,17.515118798342616 L 24.521166317679665,17.515118798342616 L 24.521166317679665,44.997040171146395 L 7.589884812615134,44.997040171146395 L 7.589884812615134,17.515118798342616 L 0,17.515118798342616 Z" fill="rgba(255,255,255,1)" stroke="#3298da" stroke-width="1.5" stroke-linecap="round" stroke-linejoin="round"/></g></g><g id="1tyg2ewgnl"><g transform="translate(650 505)"><rect x="0" y="0" width="150" height="37" fill="rgba(255,255,255,0.01)" stroke="rgba(255,255,255,0.01)" stroke-width="NaN" stroke-linecap="round" stroke-linejoin="round"/></g><g transform="translate(679.5, 514) rotate(0, 45.5, 9.5)" width="91" height="19"><text text-decoration="none" x="10" fill="rgb(75, 75, 75)" font-size="10pt" font-family="Lato"  y="17">&#x3C;&#x3C;include&#x3E;&#x3E;</text><text text-decoration="none" x="81" fill="#4b4b4b" font-size="10pt" font-family="noto_regular"  y="17"></text></g></g><g id="1tas3sqgo3"><g transform="translate(645 590)"><rect x="0" y="0" width="150" height="37" fill="rgba(255,255,255,0.01)" stroke="rgba(255,255,255,0.01)" stroke-width="NaN" stroke-linecap="round" stroke-linejoin="round"/></g><g transform="translate(674.5, 599) rotate(0, 45.5, 9.5)" width="91" height="19"><text text-decoration="none" x="10" fill="rgb(75, 75, 75)" font-size="10pt" font-family="Lato"  y="17">&#x3C;&#x3C;include&#x3E;&#x3E;</text><text text-decoration="none" x="81" fill="#4b4b4b" font-size="10pt" font-family="noto_regular"  y="17"></text></g></g><g id="975b2ptr1p"><g transform="translate(645 670)"><rect x="0" y="0" width="150" height="37" fill="rgba(255,255,255,0.01)" stroke="rgba(255,255,255,0.01)" stroke-width="NaN" stroke-linecap="round" stroke-linejoin="round"/></g><g transform="translate(674.5, 679) rotate(0, 45.5, 9.5)" width="91" height="19"><text text-decoration="none" x="10" fill="rgb(75, 75, 75)" font-size="10pt" font-family="Lato"  y="17">&#x3C;&#x3C;include&#x3E;&#x3E;</text><text text-decoration="none" x="81" fill="#4b4b4b" font-size="10pt" font-family="noto_regular"  y="17"></text></g></g><g id="1n02zjt3tt"><g transform="translate(650 755)"><rect x="0" y="0" width="150" height="37" fill="rgba(255,255,255,0.01)" stroke="rgba(255,255,255,0.01)" stroke-width="NaN" stroke-linecap="round" stroke-linejoin="round"/></g><g transform="translate(679.5, 764) rotate(0, 45.5, 9.5)" width="91" height="19"><text text-decoration="none" x="10" fill="rgb(75, 75, 75)" font-size="10pt" font-family="Lato"  y="17">&#x3C;&#x3C;include&#x3E;&#x3E;</text><text text-decoration="none" x="81" fill="#4b4b4b" font-size="10pt" font-family="noto_regular"  y="17"></text></g></g></svg>